<svg width="20" height="20" viewBox="0 0 20 20" fill="none" xmlns="http://www.w3.org/2000/svg">
<path fill-rule="evenodd" clip-rule="evenodd" d="M15.0375 4.96244C15.2328 5.1577 15.2328 5.47428 15.0375 5.66955L5.66967 15.0374C5.47441 15.2327 5.15783 15.2327 4.96257 15.0374C4.7673 14.8421 4.7673 14.5255 4.96257 14.3303L14.3304 4.96244C14.5257 4.76718 14.8423 4.76718 15.0375 4.96244Z" fill="#333E50"/>
<path fill-rule="evenodd" clip-rule="evenodd" d="M4.96244 4.96236C5.1577 4.7671 5.47428 4.7671 5.66955 4.96236L15.0374 14.3302C15.2327 14.5255 15.2327 14.842 15.0374 15.0373C14.8421 15.2326 14.5255 15.2326 14.3303 15.0373L4.96244 5.66947C4.76718 5.47421 4.76718 5.15763 4.96244 4.96236Z" fill="#333E50"/>
</svg>
