<svg width="15" height="15" viewBox="0 0 15 15" fill="none" xmlns="http://www.w3.org/2000/svg">
<path d="M14.8398 14.1429L10.3654 9.65249C11.2227 8.62609 11.7437 7.31251 11.7437 5.89285C11.7437 2.67856 9.07469 0 5.87183 0C2.66897 0 0 2.67862 0 5.89291C0 9.10721 2.66903 11.7858 5.87189 11.7858C7.25975 11.7858 8.54522 11.2822 9.55944 10.4508L13.9857 14.8929C14.0925 15 14.1992 15 14.4128 15C14.6263 15 14.733 15 14.8398 14.8929C15.0534 14.6786 15.0534 14.3572 14.8398 14.1429V14.1429ZM5.87189 10.7144C3.20286 10.7144 1.06766 8.57153 1.06766 5.89298C1.06766 3.21442 3.20286 1.0716 5.87189 1.0716C8.54092 1.0716 10.6761 3.21442 10.6761 5.89298C10.6761 8.57153 8.54092 10.7144 5.87189 10.7144Z" fill="#ADB4BF"/>
</svg>
