<svg display='none' xmlns="http://www.w3.org/2000/svg">
<symbol id='arrow'>
<path  d="M4.45143 11.5286C4.48809 11.7948 4.71969 12 4.99993 12C5.30564 12 5.55347 11.7558 5.55347 11.4545L5.55347 1.86671L9.05423 5.3302L9.1162 5.38314C9.33257 5.54203 9.64013 5.52505 9.83706 5.3318C10.0537 5.11923 10.0544 4.77387 9.83868 4.56041L5.39973 0.168203C5.37429 0.142034 5.34623 0.118357 5.31597 0.0975819C5.0998 -0.0510893 4.79995 -0.0301313 4.60737 0.160445L0.161287 4.56045L0.107824 4.62174C-0.0524988 4.83561 -0.0339699 5.1386 0.162973 5.33183C0.379612 5.54439 0.730097 5.54364 0.945805 5.33017L4.44638 1.86585L4.44638 11.4545L4.45143 11.5286Z" fill="current"/>
</symbol>
<symbol id='arrow-btn'>
<path d="M5.04511 4.09172L1.84471 0.909272C1.63235 0.696909 1.28838 0.696909 1.07602 0.909272C0.863657 1.12164 0.863657 1.46261 1.07602 1.67198L3.92049 4.4985L1.07602 7.32802C0.863657 7.54038 0.863657 7.88136 1.07602 8.09073C1.28838 8.30309 1.63235 8.30309 1.84471 8.09073L5.04511 4.90827C5.15877 4.79462 5.20962 4.64506 5.20065 4.4985C5.20962 4.35194 5.15877 4.20239 5.04511 4.09172Z" fill="current"/>
</svg>